<svg width="32" height="32" viewBox="0 0 32 32" fill="none" xmlns="http://www.w3.org/2000/svg">
<path d="M15.9998 21.9667C18.1998 20.1889 19.8609 18.4778 20.9832 16.8334C22.1054 15.1889 22.6665 13.6445 22.6665 12.2C22.6665 10.2 22.0443 8.55558 20.7998 7.26669C19.5554 5.9778 17.9554 5.33335 15.9998 5.33335C14.0443 5.33335 12.4443 5.9778 11.1998 7.26669C9.95539 8.55558 9.33317 10.2 9.33317 12.2C9.33317 13.6445 9.89428 15.1889 11.0165 16.8334C12.1387 18.4778 13.7998 20.1889 15.9998 21.9667ZM15.9998 25.3334C12.8665 23.0222 10.5276 20.7778 8.98317 18.6C7.43873 16.4222 6.6665 14.2889 6.6665 12.2C6.6665 9.42224 7.53317 7.13891 9.2665 5.35002C10.9998 3.56113 13.2443 2.66669 15.9998 2.66669C18.7554 2.66669 20.9998 3.56113 22.7332 5.35002C24.4665 7.13891 25.3332 9.42224 25.3332 12.2C25.3332 14.2889 24.5609 16.4222 23.0165 18.6C21.4721 20.7778 19.1332 23.0222 15.9998 25.3334ZM15.9998 14.6667C16.7332 14.6667 17.3609 14.4056 17.8832 13.8834C18.4054 13.3611 18.6665 12.7334 18.6665 12C18.6665 11.2667 18.4054 10.6389 17.8832 10.1167C17.3609 9.59446 16.7332 9.33335 15.9998 9.33335C15.2665 9.33335 14.6387 9.59446 14.1165 10.1167C13.5943 10.6389 13.3332 11.2667 13.3332 12C13.3332 12.7334 13.5943 13.3611 14.1165 13.8834C14.6387 14.4056 15.2665 14.6667 15.9998 14.6667ZM6.6665 29.3334V26.6667H25.3332V29.3334H6.6665Z" fill="#FAD53E"/>
</svg>
