<svg width="32" height="32" viewBox="0 0 32 32" fill="none" xmlns="http://www.w3.org/2000/svg">
<path d="M16.0155 2.66669C8.67413 2.66669 2.69782 8.63785 2.69515 15.9792C2.69382 18.3259 3.30846 20.6168 4.4738 22.6354L2.6665 29.3334L9.64307 27.6849C11.5884 28.7462 13.7783 29.3034 16.0077 29.3047H16.0129C23.3529 29.3047 29.3266 23.3322 29.3306 15.9922C29.3332 12.4335 27.9494 9.08767 25.4347 6.57033C22.9201 4.05433 19.5781 2.66802 16.0155 2.66669ZM16.0129 5.33335C18.8609 5.33469 21.5373 6.44508 23.5493 8.45575C25.5613 10.4691 26.6666 13.1443 26.6639 15.9896C26.6612 21.8616 21.8849 26.638 16.0103 26.638C14.2329 26.6367 12.4724 26.1904 10.9217 25.3438L10.0233 24.8542L9.03109 25.0886L6.40609 25.7084L7.04671 23.3281L7.33577 22.2604L6.78369 21.3021C5.85302 19.6914 5.36048 17.8499 5.36182 15.9792C5.36448 10.1099 10.1422 5.33335 16.0129 5.33335ZM11.3019 9.83335C11.0793 9.83335 10.7192 9.91669 10.4139 10.25C10.1086 10.582 9.24723 11.3861 9.24723 13.0235C9.24723 14.6608 10.4399 16.2435 10.6066 16.4662C10.7719 16.6875 12.9088 20.1537 16.2915 21.487C19.1022 22.595 19.673 22.3763 20.2837 22.3203C20.8944 22.2657 22.2538 21.5169 22.5311 20.7396C22.8084 19.9623 22.8091 19.2936 22.7264 19.1563C22.6437 19.0176 22.4217 18.9349 22.0884 18.7682C21.7564 18.6016 20.1203 17.7982 19.8149 17.6875C19.5096 17.5769 19.2863 17.5209 19.0649 17.8542C18.8436 18.1875 18.2075 18.9349 18.0129 19.1563C17.8182 19.3789 17.6248 19.4089 17.2915 19.2422C16.9582 19.0742 15.8864 18.7219 14.6144 17.5886C13.6251 16.7072 12.9575 15.6198 12.7629 15.2865C12.5695 14.9545 12.7446 14.7721 12.9113 14.6068C13.0606 14.4575 13.242 14.2181 13.4087 14.0235C13.574 13.8288 13.6314 13.6901 13.742 13.4688C13.8527 13.2474 13.796 13.0521 13.7134 12.8854C13.6307 12.7188 12.9833 11.0754 12.6873 10.4167C12.438 9.86335 12.1747 9.8505 11.9373 9.84117C11.744 9.83317 11.5233 9.83335 11.3019 9.83335Z" fill="#FAD53E"/>
</svg>
