<svg width="32" height="32" viewBox="0 0 32 32" fill="none" xmlns="http://www.w3.org/2000/svg">
<path d="M26.263 2.56006H5.86556C4.10629 2.56006 2.67847 3.99366 2.67847 5.76006V26.2401C2.67847 28.0065 4.10629 29.4401 5.86556 29.4401H26.263C28.0223 29.4401 29.4501 28.0065 29.4501 26.2401V5.76006C29.4501 3.99366 28.0223 2.56006 26.263 2.56006ZM23.7133 12.1601H22.4385C21.0744 12.1601 20.5262 12.4801 20.5262 13.4401V15.3601H23.7133L23.0759 18.5601H20.5262V28.1601H17.3391V18.5601H14.7894V15.3601H17.3391V13.4401C17.3391 10.8801 18.614 8.96006 21.1636 8.96006C23.0121 8.96006 23.7133 9.60006 23.7133 9.60006V12.1601Z" fill="white"/>
</svg>
