<svg width="33" height="32" viewBox="0 0 33 32" fill="none" xmlns="http://www.w3.org/2000/svg">
<path d="M10.3231 3C5.98466 3 2.41943 6.56045 2.41943 10.9036V21.9764C2.41943 26.3148 5.97989 29.88 10.3231 29.88H21.3958C25.7342 29.88 29.2994 26.3195 29.2994 21.9764V10.9036C29.2994 6.56523 25.739 3 21.3958 3H10.3231ZM10.3231 5.44364H21.3958C24.4169 5.44364 26.8558 7.8825 26.8558 10.9036V21.9764C26.8558 24.9975 24.4169 27.4364 21.3958 27.4364H10.3231C7.30193 27.4364 4.86307 24.9975 4.86307 21.9764V10.9036C4.86307 7.8825 7.30193 5.44364 10.3231 5.44364ZM23.0758 8.11636C22.4601 8.11636 21.9685 8.60795 21.9685 9.22364C21.9685 9.83932 22.4601 10.3309 23.0758 10.3309C23.6915 10.3309 24.1831 9.83932 24.1831 9.22364C24.1831 8.60795 23.6915 8.11636 23.0758 8.11636ZM15.8594 9.10909C11.8265 9.10909 8.52852 12.407 8.52852 16.44C8.52852 20.473 11.8265 23.7709 15.8594 23.7709C19.8924 23.7709 23.1903 20.473 23.1903 16.44C23.1903 12.407 19.8924 9.10909 15.8594 9.10909ZM15.8594 11.5527C18.5751 11.5527 20.7467 13.7243 20.7467 16.44C20.7467 19.1557 18.5751 21.3273 15.8594 21.3273C13.1438 21.3273 10.9722 19.1557 10.9722 16.44C10.9722 13.7243 13.1438 11.5527 15.8594 11.5527Z" fill="white"/>
</svg>
