<svg width="33" height="32" viewBox="0 0 33 32" fill="none" xmlns="http://www.w3.org/2000/svg">
<path d="M26.8438 2.56006H6.44637C4.68901 2.56006 3.25928 3.99558 3.25928 5.76006V26.2401C3.25928 28.0045 4.68901 29.4401 6.44637 29.4401H26.8438C28.6012 29.4401 30.0309 28.0045 30.0309 26.2401V5.76006C30.0309 3.99558 28.6012 2.56006 26.8438 2.56006ZM24.2979 14.2868C24.1532 14.3002 24.0066 14.3092 23.8581 14.3092C22.1862 14.3092 20.7169 13.4458 19.8621 12.1409C19.8621 15.5642 19.8621 19.4593 19.8621 19.5245C19.8621 22.5383 17.4285 24.9818 14.4269 24.9818C11.4253 24.9818 8.99159 22.5383 8.99159 19.5245C8.99159 16.5108 11.4253 14.0673 14.4269 14.0673C14.5403 14.0673 14.6512 14.0775 14.7628 14.0845V16.7738C14.6512 16.7604 14.5416 16.7399 14.4269 16.7399C12.8945 16.7399 11.6528 17.9866 11.6528 19.5252C11.6528 21.0637 12.8945 22.3105 14.4269 22.3105C15.9592 22.3105 17.3125 21.0983 17.3125 19.5597C17.3125 19.4989 17.3392 7.01958 17.3392 7.01958H19.8991C20.1401 9.31782 21.9879 11.1316 24.2979 11.298V14.2868Z" fill="white"/>
</svg>
