<svg width="64" height="64" viewBox="0 0 64 64" fill="none" xmlns="http://www.w3.org/2000/svg">
<g clip-path="url(#clip0_248_139)">
<g filter="url(#filter0_d_248_139)">
<path d="M12 58.6668C10.9333 58.6668 10 58.2668 9.2 57.4668C8.4 56.6668 8 55.7335 8 54.6668V13.3335C8 12.2668 8.4 11.3335 9.2 10.5335C10 9.7335 10.9333 9.3335 12 9.3335H16.3333V5.3335H20.6667V9.3335H43.3333V5.3335H47.6667V9.3335H52C53.0667 9.3335 54 9.7335 54.8 10.5335C55.6 11.3335 56 12.2668 56 13.3335V54.6668C56 55.7335 55.6 56.6668 54.8 57.4668C54 58.2668 53.0667 58.6668 52 58.6668H12ZM12 54.6668H52V26.0002H12V54.6668ZM12 22.0002H52V13.3335H12V22.0002ZM32 37.3335C31.2444 37.3335 30.6111 37.0779 30.1 36.5668C29.5889 36.0557 29.3333 35.4224 29.3333 34.6668C29.3333 33.9113 29.5889 33.2779 30.1 32.7668C30.6111 32.2557 31.2444 32.0002 32 32.0002C32.7556 32.0002 33.3889 32.2557 33.9 32.7668C34.4111 33.2779 34.6667 33.9113 34.6667 34.6668C34.6667 35.4224 34.4111 36.0557 33.9 36.5668C33.3889 37.0779 32.7556 37.3335 32 37.3335ZM21.3333 37.3335C20.5778 37.3335 19.9444 37.0779 19.4333 36.5668C18.9222 36.0557 18.6667 35.4224 18.6667 34.6668C18.6667 33.9113 18.9222 33.2779 19.4333 32.7668C19.9444 32.2557 20.5778 32.0002 21.3333 32.0002C22.0889 32.0002 22.7222 32.2557 23.2333 32.7668C23.7444 33.2779 24 33.9113 24 34.6668C24 35.4224 23.7444 36.0557 23.2333 36.5668C22.7222 37.0779 22.0889 37.3335 21.3333 37.3335ZM42.6667 37.3335C41.9111 37.3335 41.2778 37.0779 40.7667 36.5668C40.2556 36.0557 40 35.4224 40 34.6668C40 33.9113 40.2556 33.2779 40.7667 32.7668C41.2778 32.2557 41.9111 32.0002 42.6667 32.0002C43.4222 32.0002 44.0556 32.2557 44.5667 32.7668C45.0778 33.2779 45.3333 33.9113 45.3333 34.6668C45.3333 35.4224 45.0778 36.0557 44.5667 36.5668C44.0556 37.0779 43.4222 37.3335 42.6667 37.3335ZM32 48.0002C31.2444 48.0002 30.6111 47.7446 30.1 47.2335C29.5889 46.7224 29.3333 46.0891 29.3333 45.3335C29.3333 44.5779 29.5889 43.9446 30.1 43.4335C30.6111 42.9224 31.2444 42.6668 32 42.6668C32.7556 42.6668 33.3889 42.9224 33.9 43.4335C34.4111 43.9446 34.6667 44.5779 34.6667 45.3335C34.6667 46.0891 34.4111 46.7224 33.9 47.2335C33.3889 47.7446 32.7556 48.0002 32 48.0002ZM21.3333 48.0002C20.5778 48.0002 19.9444 47.7446 19.4333 47.2335C18.9222 46.7224 18.6667 46.0891 18.6667 45.3335C18.6667 44.5779 18.9222 43.9446 19.4333 43.4335C19.9444 42.9224 20.5778 42.6668 21.3333 42.6668C22.0889 42.6668 22.7222 42.9224 23.2333 43.4335C23.7444 43.9446 24 44.5779 24 45.3335C24 46.0891 23.7444 46.7224 23.2333 47.2335C22.7222 47.7446 22.0889 48.0002 21.3333 48.0002ZM42.6667 48.0002C41.9111 48.0002 41.2778 47.7446 40.7667 47.2335C40.2556 46.7224 40 46.0891 40 45.3335C40 44.5779 40.2556 43.9446 40.7667 43.4335C41.2778 42.9224 41.9111 42.6668 42.6667 42.6668C43.4222 42.6668 44.0556 42.9224 44.5667 43.4335C45.0778 43.9446 45.3333 44.5779 45.3333 45.3335C45.3333 46.0891 45.0778 46.7224 44.5667 47.2335C44.0556 47.7446 43.4222 48.0002 42.6667 48.0002Z" fill="#FAD53E"/>
</g>
</g>
<defs>
<filter id="filter0_d_248_139" x="4" y="5.3335" width="56" height="61.3335" filterUnits="userSpaceOnUse" color-interpolation-filters="sRGB">
<feFlood flood-opacity="0" result="BackgroundImageFix"/>
<feColorMatrix in="SourceAlpha" type="matrix" values="0 0 0 0 0 0 0 0 0 0 0 0 0 0 0 0 0 0 127 0" result="hardAlpha"/>
<feOffset dy="4"/>
<feGaussianBlur stdDeviation="2"/>
<feComposite in2="hardAlpha" operator="out"/>
<feColorMatrix type="matrix" values="0 0 0 0 0 0 0 0 0 0 0 0 0 0 0 0 0 0 0.25 0"/>
<feBlend mode="normal" in2="BackgroundImageFix" result="effect1_dropShadow_248_139"/>
<feBlend mode="normal" in="SourceGraphic" in2="effect1_dropShadow_248_139" result="shape"/>
</filter>
<clipPath id="clip0_248_139">
<rect width="64" height="64" fill="white"/>
</clipPath>
</defs>
</svg>
