<svg width="104" height="70" viewBox="0 0 104 70" fill="none" xmlns="http://www.w3.org/2000/svg">
<g filter="url(#filter0_d_506_274)">
<mask id="path-1-outside-1_506_274" maskUnits="userSpaceOnUse" x="53" y="28" width="47" height="34" fill="black">
<rect fill="white" x="53" y="28" width="47" height="34"/>
<path d="M56 57.16V33.16C56 32.4933 56.16 31.9733 56.48 31.6C56.8267 31.2 57.2667 31 57.8 31H64.48C68.72 31 71.9333 32.0667 74.12 34.2C76.3333 36.3333 77.44 39.6933 77.44 44.28C77.44 54.0933 73.2533 59 64.88 59H58.04C56.68 59 56 58.3867 56 57.16ZM63.68 38.6V50.56C63.68 51.12 63.72 51.48 63.8 51.64C63.88 51.7733 64.12 51.84 64.52 51.84C65.9867 51.84 67.0933 51.2933 67.84 50.2C68.6133 49.1067 69 47.2933 69 44.76C69 42.2 68.6 40.5333 67.8 39.76C67.0267 38.9867 65.7867 38.6 64.08 38.6H63.68ZM93.6484 42.12C94.1551 42.12 94.4084 43.0533 94.4084 44.92C94.4084 45.48 94.3418 46.1467 94.2084 46.92C94.1018 47.6667 93.8884 48.04 93.5684 48.04H88.4884V52.04H95.8484C96.3018 52.04 96.6084 52.6267 96.7684 53.8C96.8484 54.3067 96.8884 54.8533 96.8884 55.44C96.8884 56 96.8084 56.7333 96.6484 57.64C96.4884 58.5467 96.2218 59 95.8484 59H82.1684C81.1551 59 80.6484 58.5867 80.6484 57.76V32.04C80.6484 31.3467 80.9551 31 81.5684 31H95.8884C96.4484 31 96.7284 32.1867 96.7284 34.56C96.7284 36.9067 96.4484 38.08 95.8884 38.08H88.4884V42.12H93.6484Z"/>
</mask>
<path d="M56.48 31.6L54.2129 29.6352L54.2076 29.6414L54.2022 29.6476L56.48 31.6ZM74.12 34.2L72.025 36.3473L72.0315 36.3537L72.0381 36.36L74.12 34.2ZM63.68 38.6V35.6H60.68V38.6H63.68ZM63.8 51.64L61.1167 52.9816L61.1682 53.0847L61.2275 53.1835L63.8 51.64ZM67.84 50.2L65.3908 48.4676L65.3765 48.4877L65.3626 48.5081L67.84 50.2ZM67.8 39.76L65.6787 41.8813L65.6967 41.8993L65.7149 41.917L67.8 39.76ZM56 57.16H59V33.16H56H53V57.16H56ZM56 33.16H59C59 33.061 59.0125 33.0705 58.9873 33.1523C58.9592 33.2435 58.8929 33.3948 58.7578 33.5524L56.48 31.6L54.2022 29.6476C53.273 30.7317 53 32.0331 53 33.16H56ZM56.48 31.6L58.7471 33.5648C58.6648 33.6597 58.5206 33.786 58.3114 33.8811C58.1028 33.9759 57.9169 34 57.8 34V31V28C56.4042 28 55.1344 28.572 54.2129 29.6352L56.48 31.6ZM57.8 31V34H64.48V31V28H57.8V31ZM64.48 31V34C68.2452 34 70.5861 34.9435 72.025 36.3473L74.12 34.2L76.215 32.0527C73.2806 29.1898 69.1948 28 64.48 28V31ZM74.12 34.2L72.0381 36.36C73.4288 37.7005 74.44 40.1088 74.44 44.28H77.44H80.44C80.44 39.2778 79.2378 34.9662 76.2019 32.04L74.12 34.2ZM77.44 44.28H74.44C74.44 48.8304 73.4592 51.6835 72.0179 53.3727C70.6543 54.9708 68.4688 56 64.88 56V59V62C69.6646 62 73.7591 60.5758 76.5821 57.2673C79.3274 54.0498 80.44 49.543 80.44 44.28H77.44ZM64.88 59V56H58.04V59V62H64.88V59ZM58.04 59V56C57.7504 56 58.0933 55.928 58.5193 56.3123C58.7351 56.5069 58.8705 56.7331 58.9415 56.925C59.006 57.0997 59 57.1972 59 57.16H56H53C53 58.3203 53.3358 59.717 54.5007 60.7677C55.6067 61.7653 56.9696 62 58.04 62V59ZM63.68 38.6H60.68V50.56H63.68H66.68V38.6H63.68ZM63.68 50.56H60.68C60.68 50.898 60.6914 51.2491 60.7283 51.5813C60.7558 51.8282 60.8274 52.403 61.1167 52.9816L63.8 51.64L66.4833 50.2984C66.5496 50.4309 66.5919 50.5437 66.6179 50.6219C66.6446 50.7018 66.661 50.766 66.6707 50.8079C66.6891 50.8879 66.693 50.931 66.6917 50.9187C66.6907 50.9105 66.6875 50.877 66.6847 50.8122C66.6819 50.7487 66.68 50.6654 66.68 50.56H63.68ZM63.8 51.64L61.2275 53.1835C61.8432 54.2096 62.8019 54.5597 63.2371 54.6806C63.7274 54.8168 64.1914 54.84 64.52 54.84V51.84V48.84C64.4486 48.84 64.5926 48.8299 64.8429 48.8994C65.0381 48.9536 65.8368 49.2037 66.3725 50.0965L63.8 51.64ZM64.52 51.84V54.84C66.8527 54.84 68.9446 53.902 70.3174 51.8919L67.84 50.2L65.3626 48.5081C65.242 48.6847 65.1207 48.84 64.52 48.84V51.84ZM67.84 50.2L70.2892 51.9324C71.621 50.0495 72 47.4414 72 44.76H69H66C66 47.1453 65.6057 48.1638 65.3908 48.4676L67.84 50.2ZM69 44.76H72C72 43.3478 71.892 42.0352 71.6172 40.8899C71.3505 39.7788 70.8609 38.5463 69.8851 37.603L67.8 39.76L65.7149 41.917C65.5391 41.747 65.6495 41.7345 65.7828 42.2901C65.908 42.8115 66 43.6122 66 44.76H69ZM67.8 39.76L69.9213 37.6387C68.3391 36.0565 66.1486 35.6 64.08 35.6V38.6V41.6C65.4247 41.6 65.7142 41.9169 65.6787 41.8813L67.8 39.76ZM64.08 38.6V35.6H63.68V38.6V41.6H64.08V38.6ZM94.2084 46.92L91.2521 46.4103L91.2447 46.4529L91.2386 46.4957L94.2084 46.92ZM88.4884 48.04V45.04H85.4884V48.04H88.4884ZM88.4884 52.04H85.4884V55.04H88.4884V52.04ZM96.7684 53.8L93.7959 54.2053L93.8002 54.2367L93.8051 54.2679L96.7684 53.8ZM96.6484 57.64L93.6941 57.1186L96.6484 57.64ZM88.4884 38.08V35.08H85.4884V38.08H88.4884ZM88.4884 42.12H85.4884V45.12H88.4884V42.12ZM93.6484 42.12V45.12C93.2307 45.12 92.8098 45.0188 92.4293 44.8185C92.0626 44.6255 91.8121 44.3826 91.6546 44.1893C91.5009 44.0004 91.4175 43.8371 91.3782 43.7503C91.3376 43.6605 91.3232 43.6059 91.3232 43.6059C91.3225 43.6035 91.33 43.6309 91.3406 43.696C91.351 43.7599 91.3626 43.8484 91.3731 43.9653C91.3945 44.2019 91.4084 44.5163 91.4084 44.92H94.4084H97.4084C97.4084 43.9189 97.3475 42.8955 97.1137 42.0341C96.9994 41.6131 96.78 40.9813 96.3072 40.4007C95.7614 39.7304 94.8502 39.12 93.6484 39.12V42.12ZM94.4084 44.92H91.4084C91.4084 45.2565 91.3669 45.744 91.2521 46.4103L94.2084 46.92L97.1648 47.4297C97.3166 46.5493 97.4084 45.7035 97.4084 44.92H94.4084ZM94.2084 46.92L91.2386 46.4957C91.2046 46.7337 91.1916 46.5727 91.3637 46.2716C91.4627 46.0984 91.6752 45.7873 92.0681 45.5123C92.4964 45.2125 93.0217 45.04 93.5684 45.04V48.04V51.04C95.1685 51.04 96.1412 50.0044 96.5732 49.2484C96.9586 48.5739 97.1056 47.853 97.1783 47.3443L94.2084 46.92ZM93.5684 48.04V45.04H88.4884V48.04V51.04H93.5684V48.04ZM88.4884 48.04H85.4884V52.04H88.4884H91.4884V48.04H88.4884ZM88.4884 52.04V55.04H95.8484V52.04V49.04H88.4884V52.04ZM95.8484 52.04V55.04C95.2577 55.04 94.7248 54.8312 94.3278 54.5248C93.9755 54.2528 93.8124 53.9704 93.7598 53.8698C93.6726 53.703 93.7319 53.7357 93.7959 54.2053L96.7684 53.8L99.7409 53.3947C99.645 52.691 99.471 51.8437 99.0771 51.0902C98.673 50.3172 97.6694 49.04 95.8484 49.04V52.04ZM96.7684 53.8L93.8051 54.2679C93.8575 54.5996 93.8884 54.9882 93.8884 55.44H96.8884H99.8884C99.8884 54.7185 99.8393 54.0137 99.7317 53.3321L96.7684 53.8ZM96.8884 55.44H93.8884C93.8884 55.75 93.8404 56.2895 93.6941 57.1186L96.6484 57.64L99.6028 58.1614C99.7765 57.1772 99.8884 56.25 99.8884 55.44H96.8884ZM96.6484 57.64L93.6941 57.1186C93.6368 57.4431 93.6069 57.3696 93.7426 57.1389C93.8216 57.0048 94.0113 56.7241 94.3744 56.4669C94.7742 56.1837 95.2881 56 95.8484 56V59V62C97.5057 62 98.4867 60.9078 98.9142 60.1811C99.3166 59.497 99.5 58.7436 99.6028 58.1614L96.6484 57.64ZM95.8484 59V56H82.1684V59V62H95.8484V59ZM82.1684 59V56C81.9927 56 82.4179 55.9519 82.9248 56.3654C83.1962 56.5868 83.3991 56.8705 83.5206 57.1678C83.6345 57.4466 83.6484 57.6659 83.6484 57.76H80.6484H77.6484C77.6484 58.8154 78.0016 60.0924 79.1321 61.0146C80.1456 61.8415 81.3308 62 82.1684 62V59ZM80.6484 57.76H83.6484V32.04H80.6484H77.6484V57.76H80.6484ZM80.6484 32.04H83.6484C83.6484 32.0714 83.6495 32.6553 83.1254 33.2477C82.5393 33.9103 81.8261 34 81.5684 34V31V28C80.6975 28 79.5242 28.2631 78.6314 29.2723C77.8007 30.2113 77.6484 31.3152 77.6484 32.04H80.6484ZM81.5684 31V34H95.8884V31V28H81.5684V31ZM95.8884 31V34C95.3976 34 94.9276 33.8617 94.5316 33.6219C94.1594 33.3966 93.9311 33.1306 93.8073 32.9558C93.5885 32.6467 93.5653 32.4379 93.5986 32.5789C93.6563 32.8236 93.7284 33.4307 93.7284 34.56H96.7284H99.7284C99.7284 33.316 99.6605 32.1431 99.4383 31.2011C99.3316 30.7488 99.1333 30.095 98.7046 29.4892C98.2227 28.8085 97.2838 28 95.8884 28V31ZM96.7284 34.56H93.7284C93.7284 35.6752 93.6563 36.2692 93.6004 36.5036C93.5681 36.639 93.5935 36.4254 93.8166 36.1137C93.9428 35.9374 94.1727 35.6735 94.5444 35.451C94.9391 35.2147 95.4045 35.08 95.8884 35.08V38.08V41.08C97.2686 41.08 98.2068 40.2886 98.6953 39.6063C99.1284 39.0013 99.3288 38.3477 99.4365 37.8964C99.6606 36.9574 99.7284 35.7915 99.7284 34.56H96.7284ZM95.8884 38.08V35.08H88.4884V38.08V41.08H95.8884V38.08ZM88.4884 38.08H85.4884V42.12H88.4884H91.4884V38.08H88.4884ZM88.4884 42.12V45.12H93.6484V42.12V39.12H88.4884V42.12Z" fill="#FAD53E" mask="url(#path-1-outside-1_506_274)"/>
</g>
<g filter="url(#filter1_d_506_274)">
<mask id="path-3-outside-2_506_274" maskUnits="userSpaceOnUse" x="4" y="5" width="48" height="36" fill="black">
<rect fill="white" x="4" y="5" width="48" height="36"/>
<path d="M20 20.12C20.5067 20.12 20.76 21.0533 20.76 22.92C20.76 23.48 20.6933 24.1467 20.56 24.92C20.4533 25.6667 20.24 26.04 19.92 26.04H14.84V30.04H22.2C22.6533 30.04 22.96 30.6267 23.12 31.8C23.2 32.3067 23.24 32.8533 23.24 33.44C23.24 34 23.16 34.7333 23 35.64C22.84 36.5467 22.5733 37 22.2 37H8.52C7.50667 37 7 36.5867 7 35.76V10.04C7 9.34667 7.30667 9 7.92 9H22.24C22.8 9 23.08 10.1867 23.08 12.56C23.08 14.9067 22.8 16.08 22.24 16.08H14.84V20.12H20ZM48.6466 36.12C48.6466 36.68 47.3932 36.96 44.8866 36.96C42.3799 36.96 41.0199 36.76 40.8066 36.36L34.1266 23.88V36.32C34.1266 36.8 32.8866 37.04 30.4066 37.04C27.9532 37.04 26.7266 36.8 26.7266 36.32V9.56C26.7266 9.16 27.7799 8.96 29.8866 8.96C30.7132 8.96 31.6732 9.04 32.7666 9.2C33.8866 9.33333 34.5666 9.6 34.8066 10L41.2066 22.32V9.76C41.2066 9.25333 42.4466 9 44.9266 9C47.4066 9 48.6466 9.25333 48.6466 9.76V36.12Z"/>
</mask>
<path d="M20.56 24.92L17.6036 24.4103L17.5963 24.4529L17.5902 24.4957L20.56 24.92ZM14.84 26.04V23.04H11.84V26.04H14.84ZM14.84 30.04H11.84V33.04H14.84V30.04ZM23.12 31.8L20.1475 32.2053L20.1518 32.2367L20.1567 32.2679L23.12 31.8ZM23 35.64L20.0457 35.1186H20.0456L23 35.64ZM14.84 16.08V13.08H11.84V16.08H14.84ZM14.84 20.12H11.84V23.12H14.84V20.12ZM20 20.12V23.12C19.5822 23.12 19.1614 23.0188 18.7809 22.8185C18.4142 22.6255 18.1637 22.3826 18.0062 22.1893C17.8524 22.0004 17.7691 21.8371 17.7298 21.7503C17.6892 21.6605 17.6748 21.6059 17.6748 21.6059C17.6741 21.6035 17.6815 21.6309 17.6921 21.696C17.7025 21.7599 17.7141 21.8484 17.7247 21.9653C17.7461 22.2019 17.76 22.5163 17.76 22.92H20.76H23.76C23.76 21.9189 23.699 20.8955 23.4652 20.0341C23.351 19.6131 23.1316 18.9813 22.6588 18.4007C22.113 17.7304 21.2017 17.12 20 17.12V20.12ZM20.76 22.92H17.76C17.76 23.2565 17.7185 23.744 17.6036 24.4103L20.56 24.92L23.5164 25.4297C23.6682 24.5493 23.76 23.7035 23.76 22.92H20.76ZM20.56 24.92L17.5902 24.4957C17.5562 24.7337 17.5432 24.5727 17.7153 24.2716C17.8142 24.0984 18.0268 23.7873 18.4196 23.5123C18.8479 23.2125 19.3733 23.04 19.92 23.04V26.04V29.04C21.52 29.04 22.4928 28.0044 22.9247 27.2484C23.3102 26.5739 23.4572 25.853 23.5299 25.3443L20.56 24.92ZM19.92 26.04V23.04H14.84V26.04V29.04H19.92V26.04ZM14.84 26.04H11.84V30.04H14.84H17.84V26.04H14.84ZM14.84 30.04V33.04H22.2V30.04V27.04H14.84V30.04ZM22.2 30.04V33.04C21.6093 33.04 21.0763 32.8312 20.6793 32.5248C20.3271 32.2528 20.1639 31.9704 20.1113 31.8698C20.0241 31.703 20.0835 31.7357 20.1475 32.2053L23.12 31.8L26.0925 31.3947C25.9965 30.691 25.8225 29.8437 25.4287 29.0902C25.0246 28.3172 24.0209 27.04 22.2 27.04V30.04ZM23.12 31.8L20.1567 32.2679C20.2091 32.5996 20.24 32.9882 20.24 33.44H23.24H26.24C26.24 32.7185 26.1909 32.0137 26.0833 31.3321L23.12 31.8ZM23.24 33.44H20.24C20.24 33.75 20.192 34.2895 20.0457 35.1186L23 35.64L25.9544 36.1614C26.128 35.1772 26.24 34.25 26.24 33.44H23.24ZM23 35.64L20.0456 35.1186C19.9884 35.4431 19.9585 35.3696 20.0942 35.1389C20.1731 35.0048 20.3629 34.7241 20.726 34.4669C21.1258 34.1837 21.6397 34 22.2 34V37V40C23.8573 40 24.8383 38.9078 25.2658 38.1811C25.6682 37.497 25.8516 36.7436 25.9544 36.1614L23 35.64ZM22.2 37V34H8.52V37V40H22.2V37ZM8.52 37V34C8.34429 34 8.76945 33.9519 9.27638 34.3654C9.54779 34.5868 9.75067 34.8705 9.87212 35.1678C9.98605 35.4466 10 35.6659 10 35.76H7H4C4 36.8154 4.35315 38.0924 5.48362 39.0146C6.49721 39.8415 7.68237 40 8.52 40V37ZM7 35.76H10V10.04H7H4V35.76H7ZM7 10.04H10C10 10.0714 10.001 10.6553 9.47699 11.2477C8.8909 11.9103 8.17764 12 7.92 12V9V6C7.04902 6 5.87577 6.26307 4.98301 7.27228C4.15231 8.21133 4 9.31525 4 10.04H7ZM7.92 9V12H22.24V9V6H7.92V9ZM22.24 9V12C21.7492 12 21.2792 11.8617 20.8831 11.6219C20.511 11.3966 20.2826 11.1306 20.1589 10.9558C19.9401 10.6467 19.9169 10.4379 19.9502 10.5789C20.0079 10.8236 20.08 11.4307 20.08 12.56H23.08H26.08C26.08 11.316 26.0121 10.1431 25.7898 9.20105C25.6831 8.74881 25.4849 8.09496 25.0561 7.48921C24.5742 6.80847 23.6354 6 22.24 6V9ZM23.08 12.56H20.08C20.08 13.6752 20.0079 14.2692 19.9519 14.5036C19.9196 14.639 19.945 14.4254 20.1682 14.1137C20.2943 13.9374 20.5243 13.6735 20.896 13.451C21.2907 13.2147 21.7561 13.08 22.24 13.08V16.08V19.08C23.6201 19.08 24.5584 18.2886 25.0468 17.6063C25.48 17.0013 25.6804 16.3477 25.7881 15.8964C26.0121 14.9574 26.08 13.7915 26.08 12.56H23.08ZM22.24 16.08V13.08H14.84V16.08V19.08H22.24V16.08ZM14.84 16.08H11.84V20.12H14.84H17.84V16.08H14.84ZM14.84 20.12V23.12H20V20.12V17.12H14.84V20.12ZM40.8066 36.36L43.4536 34.9482L43.4515 34.9443L40.8066 36.36ZM34.1266 23.88L36.7715 22.4643L31.1266 23.88H34.1266ZM32.7666 9.2L32.3322 12.1684L32.372 12.1742L32.4119 12.179L32.7666 9.2ZM34.8066 10L37.4688 8.61703L37.4264 8.5354L37.379 8.45652L34.8066 10ZM41.2066 22.32L38.5443 23.703L44.2066 22.32H41.2066ZM48.6466 36.12H45.6466C45.6466 35.5943 45.8035 35.1024 46.0604 34.7007C46.2992 34.3272 46.5742 34.1075 46.7414 33.9954C47.0366 33.7975 47.2214 33.7844 47.0525 33.8222C46.7577 33.888 46.086 33.96 44.8866 33.96V36.96V39.96C46.1937 39.96 47.4021 39.892 48.3607 39.6778C48.8184 39.5756 49.4732 39.3875 50.0818 38.9796C50.7513 38.5308 51.6466 37.5908 51.6466 36.12H48.6466ZM44.8866 36.96V33.96C43.6813 33.96 42.8862 33.91 42.423 33.8419C42.1818 33.8064 42.1559 33.7833 42.2505 33.8194C42.3024 33.8392 42.4611 33.9032 42.6607 34.0429C42.8573 34.1805 43.1947 34.4628 43.4536 34.9482L40.8066 36.36L38.1595 37.7718C38.7445 38.8686 39.7513 39.2878 40.1126 39.4256C40.6005 39.6117 41.1113 39.7135 41.5501 39.7781C42.4469 39.91 43.5852 39.96 44.8866 39.96V36.96ZM40.8066 36.36L43.4515 34.9443L36.7715 22.4643L34.1266 23.88L31.4816 25.2957L38.1616 37.7757L40.8066 36.36ZM34.1266 23.88H31.1266V36.32H34.1266H37.1266V23.88H34.1266ZM34.1266 36.32H31.1266C31.1266 35.6819 31.3479 35.1229 31.6547 34.7072C31.9325 34.3308 32.2346 34.1295 32.3877 34.0406C32.6638 33.8803 32.818 33.8776 32.6265 33.9147C32.2973 33.9784 31.6008 34.04 30.4066 34.04V37.04V40.04C31.6923 40.04 32.8558 39.9816 33.7666 39.8053C34.1952 39.7224 34.8143 39.5697 35.4005 39.2294C35.9835 38.8908 37.1266 37.9802 37.1266 36.32H34.1266ZM30.4066 37.04V34.04C29.2262 34.04 28.5422 33.9784 28.2226 33.9158C28.0362 33.8794 28.1955 33.8836 28.4752 34.0478C28.6305 34.1389 28.9315 34.3424 29.2069 34.7197C29.5106 35.1355 29.7266 35.6902 29.7266 36.32H26.7266H23.7266C23.7266 37.9639 24.8484 38.8762 25.438 39.2222C26.0243 39.5664 26.6436 39.7206 27.0705 39.8042C27.9776 39.9816 29.1336 40.04 30.4066 40.04V37.04ZM26.7266 36.32H29.7266V9.56H26.7266H23.7266V36.32H26.7266ZM26.7266 9.56H29.7266C29.7266 10.2231 29.4922 10.7991 29.1732 11.223C28.8848 11.6063 28.5712 11.8118 28.4089 11.9043C28.1128 12.0729 27.9283 12.0854 28.0762 12.0573C28.3172 12.0116 28.878 11.96 29.8866 11.96V8.96V5.96C28.7884 5.96 27.7693 6.00842 26.9569 6.16266C26.5782 6.23458 25.9986 6.37209 25.4392 6.69074C24.8947 7.00092 23.7266 7.89076 23.7266 9.56H26.7266ZM29.8866 8.96V11.96C30.5288 11.96 31.3381 12.0229 32.3322 12.1684L32.7666 9.2L33.201 6.23161C32.0084 6.05709 30.8976 5.96 29.8866 5.96V8.96ZM32.7666 9.2L32.4119 12.179C32.6135 12.203 32.7648 12.2295 32.8733 12.2536C32.9841 12.2782 33.0274 12.2953 33.0213 12.2929C33.0186 12.2919 32.9229 12.2551 32.7837 12.1542C32.6407 12.0506 32.4224 11.8573 32.2341 11.5435L34.8066 10L37.379 8.45652C36.7732 7.44677 35.8416 6.95403 35.2118 6.70708C34.5419 6.44436 33.8134 6.30343 33.1212 6.22103L32.7666 9.2ZM34.8066 10L32.1443 11.383L38.5443 23.703L41.2066 22.32L43.8688 20.937L37.4688 8.61703L34.8066 10ZM41.2066 22.32H44.2066V9.76H41.2066H38.2066V22.32H41.2066ZM41.2066 9.76H44.2066C44.2066 10.3542 44.0117 10.8884 43.7233 11.301C43.4595 11.6782 43.1663 11.8875 43.0067 11.9853C42.7218 12.16 42.5547 12.1665 42.7371 12.1293C43.0513 12.0651 43.7352 12 44.9266 12V9V6C43.6379 6 42.4618 6.06158 41.5361 6.25071C41.0984 6.34013 40.4663 6.50504 39.8714 6.86969C39.2505 7.25026 38.2066 8.17378 38.2066 9.76H41.2066ZM44.9266 9V12C46.1179 12 46.8018 12.0651 47.1161 12.1293C47.2984 12.1665 47.1313 12.16 46.8464 11.9853C46.6868 11.8875 46.3937 11.6782 46.1299 11.301C45.8414 10.8884 45.6466 10.3542 45.6466 9.76H48.6466H51.6466C51.6466 8.17378 50.6027 7.25026 49.9818 6.86969C49.3868 6.50504 48.7547 6.34013 48.3171 6.25071C47.3913 6.06158 46.2152 6 44.9266 6V9ZM48.6466 9.76H45.6466V36.12H48.6466H51.6466V9.76H48.6466Z" fill="#FAD53E" mask="url(#path-3-outside-2_506_274)"/>
</g>
<g filter="url(#filter2_f_506_274)">
<circle cx="58" cy="34" r="10" fill="#00492D" fill-opacity="0.5"/>
</g>
<g filter="url(#filter3_f_506_274)">
<circle cx="48.5" cy="36.5" r="9.5" fill="#00492D" fill-opacity="0.5"/>
</g>
<g filter="url(#filter4_d_506_274)">
<path d="M68 11L40 56" stroke="#FAD53E" stroke-width="5" stroke-linecap="round"/>
</g>
<defs>
<filter id="filter0_d_506_274" x="49" y="28" width="54.8884" height="42" filterUnits="userSpaceOnUse" color-interpolation-filters="sRGB">
<feFlood flood-opacity="0" result="BackgroundImageFix"/>
<feColorMatrix in="SourceAlpha" type="matrix" values="0 0 0 0 0 0 0 0 0 0 0 0 0 0 0 0 0 0 127 0" result="hardAlpha"/>
<feOffset dy="4"/>
<feGaussianBlur stdDeviation="2"/>
<feComposite in2="hardAlpha" operator="out"/>
<feColorMatrix type="matrix" values="0 0 0 0 0 0 0 0 0 0 0 0 0 0 0 0 0 0 0.25 0"/>
<feBlend mode="normal" in2="BackgroundImageFix" result="effect1_dropShadow_506_274"/>
<feBlend mode="normal" in="SourceGraphic" in2="effect1_dropShadow_506_274" result="shape"/>
</filter>
<filter id="filter1_d_506_274" x="0" y="5.95996" width="55.6465" height="42.0801" filterUnits="userSpaceOnUse" color-interpolation-filters="sRGB">
<feFlood flood-opacity="0" result="BackgroundImageFix"/>
<feColorMatrix in="SourceAlpha" type="matrix" values="0 0 0 0 0 0 0 0 0 0 0 0 0 0 0 0 0 0 127 0" result="hardAlpha"/>
<feOffset dy="4"/>
<feGaussianBlur stdDeviation="2"/>
<feComposite in2="hardAlpha" operator="out"/>
<feColorMatrix type="matrix" values="0 0 0 0 0 0 0 0 0 0 0 0 0 0 0 0 0 0 0.25 0"/>
<feBlend mode="normal" in2="BackgroundImageFix" result="effect1_dropShadow_506_274"/>
<feBlend mode="normal" in="SourceGraphic" in2="effect1_dropShadow_506_274" result="shape"/>
</filter>
<filter id="filter2_f_506_274" x="44" y="20" width="28" height="28" filterUnits="userSpaceOnUse" color-interpolation-filters="sRGB">
<feFlood flood-opacity="0" result="BackgroundImageFix"/>
<feBlend mode="normal" in="SourceGraphic" in2="BackgroundImageFix" result="shape"/>
<feGaussianBlur stdDeviation="2" result="effect1_foregroundBlur_506_274"/>
</filter>
<filter id="filter3_f_506_274" x="35" y="23" width="27" height="27" filterUnits="userSpaceOnUse" color-interpolation-filters="sRGB">
<feFlood flood-opacity="0" result="BackgroundImageFix"/>
<feBlend mode="normal" in="SourceGraphic" in2="BackgroundImageFix" result="shape"/>
<feGaussianBlur stdDeviation="2" result="effect1_foregroundBlur_506_274"/>
</filter>
<filter id="filter4_d_506_274" x="33.4998" y="8.49951" width="41.0005" height="58.001" filterUnits="userSpaceOnUse" color-interpolation-filters="sRGB">
<feFlood flood-opacity="0" result="BackgroundImageFix"/>
<feColorMatrix in="SourceAlpha" type="matrix" values="0 0 0 0 0 0 0 0 0 0 0 0 0 0 0 0 0 0 127 0" result="hardAlpha"/>
<feOffset dy="4"/>
<feGaussianBlur stdDeviation="2"/>
<feComposite in2="hardAlpha" operator="out"/>
<feColorMatrix type="matrix" values="0 0 0 0 0 0 0 0 0 0 0 0 0 0 0 0 0 0 0.25 0"/>
<feBlend mode="normal" in2="BackgroundImageFix" result="effect1_dropShadow_506_274"/>
<feBlend mode="normal" in="SourceGraphic" in2="effect1_dropShadow_506_274" result="shape"/>
</filter>
</defs>
</svg>
