<svg width="64" height="64" viewBox="0 0 64 64" fill="none" xmlns="http://www.w3.org/2000/svg">
<g clip-path="url(#clip0_248_126)">
<g filter="url(#filter0_d_248_126)">
<path d="M38.4667 22.4668C37.8445 20.9557 36.9556 19.7779 35.8 18.9335C34.6445 18.089 33.2667 17.6668 31.6667 17.6668C30.2889 17.6668 29.0667 17.9001 28 18.3668C26.9334 18.8335 26.0223 19.5112 25.2667 20.4001L22.4667 17.6001C23.4 16.5335 24.4778 15.689 25.7001 15.0668C26.9223 14.4446 28.2223 14.0446 29.6 13.8668V8.00013H33.6V13.8001C35.4667 14.0224 37.1667 14.7001 38.7001 15.8335C40.2334 16.9668 41.4445 18.6001 42.3334 20.7335L38.4667 22.4668ZM53.7334 60.2668L40.9334 47.4668C39.9556 48.4001 38.8334 49.089 37.5667 49.5335C36.3 49.9779 34.9778 50.2446 33.6 50.3335V56.0001H29.6V50.2668C27.0667 49.9112 24.9556 48.9001 23.2667 47.2335C21.5778 45.5668 20.3778 43.5335 19.6667 41.1335L23.6667 39.7335C24.2889 42.0001 25.3001 43.689 26.7001 44.8001C28.1 45.9112 29.8667 46.4668 32 46.4668C33.1556 46.4668 34.2778 46.3224 35.3667 46.0335C36.4556 45.7446 37.3334 45.2446 38 44.5335L3.80005 10.3335L6.66672 7.4668L56.6001 57.4001L53.7334 60.2668Z" fill="#FAD53E"/>
</g>
</g>
<defs>
<filter id="filter0_d_248_126" x="-0.199951" y="7.4668" width="60.8" height="60.7998" filterUnits="userSpaceOnUse" color-interpolation-filters="sRGB">
<feFlood flood-opacity="0" result="BackgroundImageFix"/>
<feColorMatrix in="SourceAlpha" type="matrix" values="0 0 0 0 0 0 0 0 0 0 0 0 0 0 0 0 0 0 127 0" result="hardAlpha"/>
<feOffset dy="4"/>
<feGaussianBlur stdDeviation="2"/>
<feComposite in2="hardAlpha" operator="out"/>
<feColorMatrix type="matrix" values="0 0 0 0 0 0 0 0 0 0 0 0 0 0 0 0 0 0 0.25 0"/>
<feBlend mode="normal" in2="BackgroundImageFix" result="effect1_dropShadow_248_126"/>
<feBlend mode="normal" in="SourceGraphic" in2="effect1_dropShadow_248_126" result="shape"/>
</filter>
<clipPath id="clip0_248_126">
<rect width="64" height="64" fill="white"/>
</clipPath>
</defs>
</svg>
