<svg width="28" height="28" viewBox="0 0 28 28" fill="none" xmlns="http://www.w3.org/2000/svg">
<path d="M14 25.0833C12.4804 25.0833 11.0463 24.792 9.69788 24.2095C8.3494 23.6269 7.1734 22.8338 6.16988 21.83C5.16615 20.8265 4.37301 19.6505 3.79046 18.302C3.2079 16.9536 2.91663 15.5195 2.91663 14C2.91663 12.4683 3.2079 11.0313 3.79046 9.68883C4.37301 8.34639 5.16615 7.1734 6.16988 6.16988C7.1734 5.16615 8.3494 4.37302 9.69788 3.79046C11.0463 3.2079 12.4804 2.91663 14 2.91663C15.5316 2.91663 16.9686 3.2079 18.3111 3.79046C19.6535 4.37302 20.8265 5.16615 21.83 6.16988C22.8338 7.1734 23.6269 8.34639 24.2095 9.68883C24.792 11.0313 25.0833 12.4683 25.0833 14C25.0833 15.5195 24.792 16.9536 24.2095 18.302C23.6269 19.6505 22.8338 20.8265 21.83 21.83C20.8265 22.8338 19.6535 23.6269 18.3111 24.2095C16.9686 24.792 15.5316 25.0833 14 25.0833ZM14 23.3085C14.5953 22.5189 15.0964 21.7224 15.5032 20.9192C15.91 20.1159 16.2413 19.2379 16.4972 18.2851H11.5027C11.7736 19.2678 12.1087 20.1608 12.5081 20.9641C12.9073 21.7673 13.4046 22.5488 14 23.3085ZM11.7407 22.9877C11.2935 22.346 10.8919 21.6165 10.5358 20.7993C10.1798 19.9818 9.90311 19.1438 9.70575 18.2851H5.74813C6.36432 19.4967 7.19071 20.5146 8.22729 21.3389C9.26388 22.1629 10.435 22.7125 11.7407 22.9877ZM16.2592 22.9877C17.5649 22.7125 18.736 22.1629 19.7726 21.3389C20.8092 20.5146 21.6356 19.4967 22.2518 18.2851H18.2942C18.0593 19.1512 17.7638 19.9929 17.4078 20.8104C17.052 21.6278 16.6691 22.3536 16.2592 22.9877ZM5.01429 16.5351H9.35138C9.27807 16.1015 9.22489 15.6764 9.19183 15.2597C9.15897 14.8432 9.14254 14.4233 9.14254 14C9.14254 13.5767 9.15897 13.1568 9.19183 12.7403C9.22489 12.3236 9.27807 11.8984 9.35138 11.4648H5.01429C4.9021 11.8611 4.81615 12.2731 4.75646 12.7009C4.69657 13.1287 4.66663 13.5617 4.66663 14C4.66663 14.4382 4.69657 14.8713 4.75646 15.299C4.81615 15.7268 4.9021 16.1388 5.01429 16.5351ZM11.1011 16.5351H16.8988C16.9719 16.1015 17.025 15.6802 17.0581 15.271C17.0909 14.8619 17.1074 14.4382 17.1074 14C17.1074 13.5617 17.0909 13.138 17.0581 12.7289C17.025 12.3198 16.9719 11.8984 16.8988 11.4648H11.1011C11.028 11.8984 10.9749 12.3198 10.9418 12.7289C10.909 13.138 10.8925 13.5617 10.8925 14C10.8925 14.4382 10.909 14.8619 10.9418 15.271C10.9749 15.6802 11.028 16.1015 11.1011 16.5351ZM18.6485 16.5351H22.9856C23.0978 16.1388 23.1838 15.7268 23.2435 15.299C23.3033 14.8713 23.3333 14.4382 23.3333 14C23.3333 13.5617 23.3033 13.1287 23.2435 12.7009C23.1838 12.2731 23.0978 11.8611 22.9856 11.4648H18.6485C18.7218 11.8984 18.775 12.3236 18.8081 12.7403C18.8409 13.1568 18.8574 13.5767 18.8574 14C18.8574 14.4233 18.8409 14.8432 18.8081 15.2597C18.775 15.6764 18.7218 16.1015 18.6485 16.5351ZM18.2942 9.71479H22.2518C21.6282 8.48824 20.8075 7.47032 19.7895 6.66104C18.7716 5.85196 17.5948 5.29857 16.2592 5.00088C16.7064 5.67988 17.1043 6.42256 17.4527 7.22892C17.8013 8.03508 18.0818 8.86371 18.2942 9.71479ZM11.5027 9.71479H16.4972C16.2263 8.73946 15.8857 7.84083 15.4752 7.01892C15.0645 6.197 14.5728 5.42117 14 4.69142C13.4271 5.42117 12.9354 6.197 12.5247 7.01892C12.1142 7.84083 11.7736 8.73946 11.5027 9.71479ZM5.74813 9.71479H9.70575C9.91808 8.86371 10.1986 8.03508 10.5472 7.22892C10.8957 6.42256 11.2935 5.67988 11.7407 5.00088C10.3975 5.29857 9.21886 5.8539 8.20483 6.66688C7.19061 7.47965 6.37171 8.49563 5.74813 9.71479Z" fill="#FAD53E"/>
</svg>
