<svg width="32" height="32" viewBox="0 0 32 32" fill="none" xmlns="http://www.w3.org/2000/svg">
<g clip-path="url(#clip0_127_7)">
<path d="M15.9996 0C9.87644 0 4.89502 4.98215 4.89502 11.1054C4.89502 16.9996 14.9704 30.7705 15.3994 31.3536L15.7997 31.8985C15.8466 31.9626 15.9211 32 15.9996 32C16.0792 32 16.1533 31.9626 16.2006 31.8985L16.6007 31.3536C17.03 30.7705 27.1051 16.9996 27.1051 11.1054C27.1051 4.98215 22.1228 0 15.9996 0ZM15.9996 7.12748C18.1935 7.12748 19.9775 8.91158 19.9775 11.1054C19.9775 13.2981 18.1934 15.0834 15.9996 15.0834C13.8069 15.0834 12.0216 13.2981 12.0216 11.1054C12.0216 8.91158 13.8068 7.12748 15.9996 7.12748Z" fill="#FAD53E" stroke="#FAD53E" stroke-width="0.161735"/>
</g>
<defs>
<clipPath id="clip0_127_7">
<rect width="32" height="32" fill="white"/>
</clipPath>
</defs>
</svg>
