<svg width="32" height="32" viewBox="0 0 32 32" fill="none" xmlns="http://www.w3.org/2000/svg">
<path d="M8.03059 23.0563C9.16392 22.2154 10.3986 21.5513 11.7346 21.064C13.0704 20.5769 14.4921 20.3333 15.9999 20.3333C17.5077 20.3333 18.9295 20.5769 20.2653 21.064C21.6013 21.5513 22.8359 22.2154 23.9693 23.0563C24.7981 22.1452 25.4549 21.0906 25.9396 19.8923C26.4243 18.6941 26.6666 17.3967 26.6666 16C26.6666 13.0444 25.6277 10.5278 23.5499 8.45C21.4721 6.37222 18.9555 5.33333 15.9999 5.33333C13.0444 5.33333 10.5277 6.37222 8.44992 8.45C6.37214 10.5278 5.33325 13.0444 5.33325 16C5.33325 17.3967 5.57559 18.6941 6.06025 19.8923C6.54492 21.0906 7.2017 22.1452 8.03059 23.0563ZM16.0003 17C14.7829 17 13.7564 16.5822 12.9206 15.7467C12.0846 14.9109 11.6666 13.8843 11.6666 12.667C11.6666 11.4497 12.0844 10.4231 12.9199 9.58733C13.7557 8.75133 14.7823 8.33333 15.9996 8.33333C17.2169 8.33333 18.2435 8.75111 19.0793 9.58666C19.9153 10.4224 20.3333 11.449 20.3333 12.6663C20.3333 13.8837 19.9155 14.9102 19.0799 15.746C18.2441 16.582 17.2176 17 16.0003 17ZM15.9999 28.6667C14.241 28.6667 12.591 28.3359 11.0499 27.6743C9.50881 27.0128 8.16825 26.1119 7.02825 24.9717C5.88803 23.8317 4.98714 22.4911 4.32559 20.95C3.66403 19.4089 3.33325 17.7589 3.33325 16C3.33325 14.2411 3.66403 12.5911 4.32559 11.05C4.98714 9.50889 5.88803 8.16833 7.02825 7.02833C8.16825 5.88811 9.50881 4.98722 11.0499 4.32567C12.591 3.66411 14.241 3.33333 15.9999 3.33333C17.7588 3.33333 19.4088 3.66411 20.9499 4.32567C22.491 4.98722 23.8316 5.88811 24.9716 7.02833C26.1118 8.16833 27.0127 9.50889 27.6743 11.05C28.3358 12.5911 28.6666 14.2411 28.6666 16C28.6666 17.7589 28.3358 19.4089 27.6743 20.95C27.0127 22.4911 26.1118 23.8317 24.9716 24.9717C23.8316 26.1119 22.491 27.0128 20.9499 27.6743C19.4088 28.3359 17.7588 28.6667 15.9999 28.6667ZM15.9999 26.6667C17.2033 26.6667 18.3635 26.4731 19.4806 26.086C20.5977 25.6987 21.5896 25.1572 22.4563 24.4617C21.5896 23.7914 20.6106 23.2692 19.5193 22.895C18.4277 22.5206 17.2546 22.3333 15.9999 22.3333C14.7453 22.3333 13.57 22.5183 12.4743 22.8883C11.3785 23.2586 10.4016 23.783 9.54359 24.4617C10.4103 25.1572 11.4021 25.6987 12.5193 26.086C13.6364 26.4731 14.7966 26.6667 15.9999 26.6667ZM15.9999 15C16.6633 15 17.2179 14.7769 17.6639 14.3307C18.1101 13.8847 18.3333 13.33 18.3333 12.6667C18.3333 12.0033 18.1101 11.4487 17.6639 11.0027C17.2179 10.5564 16.6633 10.3333 15.9999 10.3333C15.3366 10.3333 14.7819 10.5564 14.3359 11.0027C13.8897 11.4487 13.6666 12.0033 13.6666 12.6667C13.6666 13.33 13.8897 13.8847 14.3359 14.3307C14.7819 14.7769 15.3366 15 15.9999 15Z" fill="currentColor"/>
</svg>
