<svg width="28" height="28" viewBox="0 0 28 28" fill="none" xmlns="http://www.w3.org/2000/svg">
<path d="M18.0519 19.2815L19.2816 18.0518L14.8751 13.6453V8.16663H13.1251V14.3543L18.0519 19.2815ZM14.0021 25.0833C12.4691 25.0833 11.0282 24.7924 9.67933 24.2106C8.33047 23.6288 7.15719 22.8393 6.1595 21.842C5.1618 20.8447 4.37187 19.6719 3.78971 18.3236C3.20773 16.9753 2.91675 15.5348 2.91675 14.002C2.91675 12.469 3.20764 11.0281 3.78941 9.67921C4.37119 8.33035 5.16073 7.15707 6.15804 6.15938C7.15534 5.16168 8.32814 4.37175 9.67641 3.78958C11.0247 3.20761 12.4652 2.91663 13.998 2.91663C15.531 2.91663 16.972 3.20751 18.3208 3.78929C19.6697 4.37107 20.843 5.16061 21.8407 6.15792C22.8384 7.15522 23.6283 8.32801 24.2105 9.67629C24.7924 11.0246 25.0834 12.4651 25.0834 13.9979C25.0834 15.5309 24.7925 16.9718 24.2107 18.3207C23.629 19.6696 22.8394 20.8428 21.8421 21.8405C20.8448 22.8382 19.672 23.6282 18.3237 24.2103C16.9755 24.7923 15.5349 25.0833 14.0021 25.0833ZM14.0001 23.3333C16.5862 23.3333 18.7883 22.4243 20.6063 20.6062C22.4244 18.7882 23.3334 16.5861 23.3334 14C23.3334 11.4138 22.4244 9.21176 20.6063 7.39371C18.7883 5.57565 16.5862 4.66663 14.0001 4.66663C11.414 4.66663 9.21189 5.57565 7.39383 7.39371C5.57578 9.21176 4.66675 11.4138 4.66675 14C4.66675 16.5861 5.57578 18.7882 7.39383 20.6062C9.21189 22.4243 11.414 23.3333 14.0001 23.3333Z" fill="#FAD53E"/>
</svg>
