<svg width="32" height="32" viewBox="0 0 32 32" fill="none" xmlns="http://www.w3.org/2000/svg">
<path d="M15.9511 2.6665C8.63941 2.6665 2.68719 8.63767 2.68454 15.979C2.68321 18.3257 3.29538 20.6166 4.45601 22.6353L2.65601 29.3332L9.60444 27.6847C11.5419 28.7461 13.723 29.3032 15.9434 29.3045H15.9485C23.2589 29.3045 29.2086 23.332 29.2126 15.992C29.2152 12.4334 27.837 9.08748 25.3324 6.57015C22.8279 4.05415 19.4994 2.66784 15.9511 2.6665ZM15.9485 5.33317C18.7851 5.3345 21.4507 6.4449 23.4546 8.45557C25.4585 10.4689 26.5593 13.1441 26.5566 15.9894C26.554 21.8614 21.7969 26.6379 15.9459 26.6379C14.1758 26.6365 12.4223 26.1903 10.8779 25.3436L9.98311 24.854L8.99493 25.0884L6.38051 25.7082L7.01855 23.328L7.30645 22.2603L6.75659 21.3019C5.82968 19.6913 5.33912 17.8497 5.34045 15.979C5.34311 10.1097 10.1015 5.33317 15.9485 5.33317ZM11.2566 9.83317C11.0348 9.83317 10.6763 9.9165 10.3722 10.2498C10.0681 10.5818 9.2102 11.3859 9.2102 13.0233C9.2102 14.6606 10.3981 16.2433 10.5641 16.466C10.7288 16.6873 12.857 20.1535 16.2261 21.4868C19.0254 22.5948 19.594 22.3761 20.2022 22.3201C20.8104 22.2655 22.1643 21.5168 22.4405 20.7394C22.7167 19.9621 22.7173 19.2934 22.635 19.1561C22.5527 19.0174 22.3316 18.9347 21.9996 18.7681C21.6689 18.6014 20.0394 17.798 19.7353 17.6873C19.4312 17.5767 19.2088 17.5207 18.9883 17.854C18.7679 18.1873 18.1344 18.9348 17.9405 19.1561C17.7466 19.3788 17.554 19.4087 17.222 19.242C16.89 19.074 15.8226 18.7217 14.5557 17.5884C13.5704 16.707 12.9055 15.6196 12.7116 15.2863C12.5191 14.9543 12.6935 14.7719 12.8595 14.6066C13.0082 14.4573 13.1889 14.2179 13.3549 14.0233C13.5195 13.8286 13.5766 13.6899 13.6869 13.4686C13.7971 13.2473 13.7407 13.0519 13.6583 12.8853C13.576 12.7186 12.9312 11.0752 12.6364 10.4165C12.3881 9.86317 12.1258 9.85032 11.8895 9.84098C11.6969 9.83298 11.477 9.83317 11.2566 9.83317Z" fill="white"/>
</svg>
